<svg xmlns="http://www.w3.org/2000/svg" viewBox="0 0 1456.08 1440"><defs><style>.cls-1{fill:#faeadb;}</style></defs><g id="Capa_1" data-name="Capa 1"><path class="cls-1" d="M165.75,1159.57c26.37-51.31,69.15-90.28,102.62-136.28,93.08-128,144.73-269.19,138.36-429-4.08-102.23-31-199.13-73.54-291.66-29.94-65.11-62-129.27-88.38-199.31C285.91,137,327.61,170,368,204.43,479.12,299.27,602.7,369,748.18,395c61.41,11,123.08,15,185,3.39,106.44-9.46,200.14-57.2,296.1-98.26,18.61-8,35.91-19.78,64-22.21-36.69,48.15-69.78,92.27-103.61,135.82-133.72,172.14-167,364.83-121.94,575.39,21,97.89,68,184.27,109.92,273.2,11.36,24.08,27.19,46.17,33.11,72.72l.5-.45c-39.41-15.41-65.61-48.48-97.47-73.83-58-46.17-114.39-94.52-180.7-129.06-202.33-119.36-410-121.79-622.91-30.27-47.64,20.48-92.25,49-144.57,58Z"/><path class="cls-1" d="M1210.77,1335l2.35,1.6-1.85-2Z"/><path class="cls-1" d="M165.62,1159.44l-2.81,3.49c.05-.75-.19-1.81.21-2.16a9.39,9.39,0,0,1,2.73-1.2Z"/></g></svg>